PathFileType   4   (X/Y/Z)																																																																																																																							
DataRate	CameraRate	NumFrames	NumMarkers	Units	OrigDataRate	OrigDataStartFrame	OrigNumFrames																																																																																																																
120	120	8	37	mm	120	103	136																																																																																																																
Frame#	Time	Sternum	R.Acromium	L.Acromium	Top.Head	R.ASIS	L.ASIS	V.Sacral	R.Thigh.Upper	R.Thigh.Front	R.Thigh.Rear	R.Knee.Lat	R.Knee.Med	R.Shank.Upper	R.Shank.Front	R.Shank.Rear	R.Ankle.Lat	R.Ankle.Med	R.Heel	R.Midfoot.Sup	R.Midfoot.Lat	R.Toe.Lat	R.Toe.Med	R.Toe.Tip	L.Thigh.Upper	L.Thigh.Front	L.Thigh.Rear	L.Knee.Lat	L.Knee.Med	L.Shank.Upper	L.Shank.Front	L.Shank.Rear	L.Ankle.Lat	L.Ankle.Med	L.Heel	L.Midfoot.Sup	L.Midfoot.Lat	L.Toe.Lat	L.Toe.Med	L.Toe.Tip																																																																															
 	 	X1	Y1	Z1	X2	Y2	Z2	X3	Y3	Z3	X4	Y4	Z4	X5	Y5	Z5	X6	Y6	Z6	X7	Y7	Z7	X8	Y8	Z8	X9	Y9	Z9	X10	Y10	Z10	X11	Y11	Z11	X12	Y12	Z12	X13	Y13	Z13	X14	Y14	Z14	X15	Y15	Z15	X16	Y16	Z16	X17	Y17	Z17	X18	Y18	Z18	X19	Y19	Z19	X20	Y20	Z20	X21	Y21	Z21	X22	Y22	Z22	X23	Y23	Z23	X24	Y24	Z24	X25	Y25	Z25	X26	Y26	Z26	X27	Y27	Z27	X28	Y28	Z28	X29	Y29	Z29	X30	Y30	Z30	X31	Y31	Z31	X32	Y32	Z32	X33	Y33	Z33	X34	Y34	Z34	X35	Y35	Z35	X36	Y36	Z36	X37	Y37	Z37	X38	Y38	Z38	X39	Y39	Z39	
																																																																																																																							
	103	1.08333	2201.008802	-0.001000353	1245.143079	2137.720199	-161.6639114	1322.604962	2140.369492	164.9109026	1321.885042	2277.044158	-10.07056321	1526.728679	2174.82827	-126.4287728	885.4110638	2180.392167	128.1563878	877.0882856	1985.954665	-6.022778891	900.8920018	2128.084714	-163.1570236	588.4914636	2181.986412	-74.72940176	532.0436002	2119.324939	-154.4047096	476.2159337	2083.271303	-137.316947	396.506631	2081.785763	-24.75841468	381.007734	2050.336731	-149.3438724	369.3411757	2117.58385	-96.85682453	326.3198903	2054.782566	-158.2831336	285.9077394	2021.017768	-134.0955655	12.83662705	2030.282124	-48.0330811	25.72991471	1957.887718	-83.91925551	-7.209057032	2096.314132	-49.92190453	-1.361829286	2090.548151	-153.2800315	-20.18976656	2175.894693	-162.0397613	-46.45967103	2178.603872	-57.59368751	-33.95915616	2237.274355	-88.18151523	-35.6719457	2190.742236	167.6781368	632.3834916	2272.926493	97.4394069	628.6051976	2225.704653	153.3828701	537.2882266	2255.123027	138.945524	417.7699801	2255.867875	31.06670304	418.8534312	2215.499913	156.0706667	391.3125819	2233.516054	102.6419486	329.615722	2182.751187	166.4841022	360.7629308	2068.780054	133.6260322	80.04656763	2081.885949	45.5255286	98.70004537	1994.830884	81.19863714	87.54363721	2153.922767	55.77109965	40.06047681	2137.031822	150.766436	45.38098879	2188.422303	160.8566492	5.721220447	2204.073398	62.45973316	0.77081732	2249.512542	86.83216932	-12.70401364
	104	1.09167	2207.039078	-0.001000353	1244.747006	2143.810033	-161.6639114	1322.257512	2146.458771	164.9109026	1321.535556	2283.290844	-10.07056321	1526.274081	2180.548461	-126.4287728	884.9590472	2186.100543	128.1563878	876.6283827	1991.697013	-6.022778891	900.7079663	2131.633763	-163.1570236	587.6865044	2184.968033	-74.72940176	530.7022083	2121.75117	-154.4047096	475.5042303	2084.901889	-137.316947	396.1596142	2083.261365	-24.75841468	380.6763549	2051.901491	-149.3438724	369.2085274	2118.910297	-96.85682453	325.8169835	2055.887068	-158.2831336	285.7518386	2020.616613	-134.0955655	12.87111548	2029.951943	-48.0330811	25.71310788	1957.466808	-83.91925551	-7.13139141	2095.899143	-49.92190453	-1.426052719	2090.113866	-153.2800315	-20.24807002	2175.433438	-162.0397613	-46.60544022	2178.155428	-57.59368751	-34.1077088	2236.824124	-88.18151523	-35.88063423	2197.53433	167.6781368	632.9258499	2279.744815	97.4394069	629.7693186	2233.215063	153.3828701	538.0977666	2263.53665	138.945524	418.8054646	2264.273281	31.06670304	419.8945188	2226.143106	156.0706667	391.4710693	2246.90846	102.6419486	330.6443983	2194.797611	166.4841022	359.4832561	2093.532411	133.6260322	73.93736641	2105.788435	45.5255286	93.15992122	2019.305394	81.19863714	77.82812758	2180.527398	55.77109965	38.17534575	2163.396655	150.766436	42.6641651	2216.663634	160.8566492	5.56284824	2232.537923	62.45973316	1.383113215	2278.581208	86.83216932	-9.85534249
	105	1.1	2213.091533	-0.001000353	1244.310279	2149.918786	-161.6639114	1321.866675	2152.566999	164.9109026	1321.142795	2289.547696	-10.07056321	1525.781913	2186.304891	-126.4287728	884.4630533	2191.845325	128.1563878	876.124638	1997.475636	-6.022778891	900.4758742	2135.254704	-163.1570236	586.8646988	2188.026969	-74.72940176	529.3595479	2124.271255	-154.4047096	474.7848517	2086.644797	-137.316947	395.8058214	2084.852347	-24.75841468	380.3394138	2053.567748	-149.3438724	369.0728033	2120.327112	-96.85682453	325.2984567	2057.075609	-158.2831336	285.5946706	2020.243946	-134.0955655	12.92028126	2029.652622	-48.0330811	25.70863417	1957.072983	-83.91925551	-7.035437954	2095.511468	-49.92190453	-1.481344211	2089.705631	-153.2800315	-20.29702969	2174.996355	-162.0397613	-46.74759839	2177.731998	-57.59368751	-34.25284829	2236.398722	-88.18151523	-36.08986999	2204.200986	167.6781368	633.3168649	2286.43043	97.4394069	630.7003706	2240.503792	153.3828701	538.7251827	2271.608252	138.945524	419.6346099	2272.337714	31.06670304	420.7284789	2236.539143	156.0706667	391.5451954	2260.045705	102.6419486	331.7244181	2206.678823	166.4841022	358.1667366	2118.487094	133.6260322	68.31623234	2129.857417	45.5255286	88.07559685	2044.158754	81.19863714	68.68451318	2207.082561	55.77109965	36.73595067	2189.757903	150.766436	40.40584237	2244.72737	160.8566492	5.877063189	2260.782308	62.45973316	2.456214344	2307.307525	86.83216932	-6.582095582
	106	1.10833	2219.160938	-0.001000353	1243.837608	2156.040682	-161.6639114	1321.436731	2158.688406	164.9109026	1320.71106	2295.807538	-10.07056321	1525.257445	2192.096627	-126.4287728	883.9316369	2197.62593	128.1563878	875.5858359	2003.288908	-6.022778891	900.1964141	2138.958128	-163.1570236	586.0310106	2191.176198	-74.72940176	528.0221537	2126.899771	-154.4047096	474.0617099	2088.517236	-137.316947	395.4473435	2086.576468	-24.75841468	379.9988466	2055.350452	-149.3438724	368.9369212	2121.847599	-96.85682453	324.7652617	2058.360464	-158.2831336	285.439355	2019.903478	-134.0955655	12.98944359	2029.388245	-48.0330811	25.72146449	1956.709449	-83.91925551	-6.914314325	2095.15442	-49.92190453	-1.524309214	2089.326286	-153.2800315	-20.33310008	2174.5856	-162.0397613	-46.88474135	2177.33605	-57.59368751	-34.39324246	2236.000556	-88.18151523	-36.29979783	2210.749553	167.6781368	633.5595217	2292.99233	97.4394069	631.4024153	2247.580196	153.3828701	539.1721087	2279.349431	138.945524	420.2571487	2280.07277	31.06670304	421.3550755	2246.684053	156.0706667	391.5433305	2272.902606	102.6419486	332.8605278	2218.381948	166.4841022	356.8338066	2143.542241	133.6260322	63.25227765	2153.996735	45.5255286	83.51110984	2069.275245	81.19863714	60.21018531	2233.493402	55.77109965	35.77098519	2216.018599	150.766436	38.64207459	2272.514512	160.8566492	6.671921361	2288.709505	62.45973316	3.991351818	2335.600439	86.83216932	-2.902642134
	107	1.11667	2225.241337	-0.001000353	1243.332915	2162.169126	-161.6639114	1320.971093	2164.8164	164.9109026	1320.243783	2302.062117	-10.07056321	1524.705254	2197.921914	-126.4287728	883.3712165	2203.440869	128.1563878	875.0185687	2009.134499	-6.022778891	899.8699949	2142.753219	-163.1570236	585.189012	2194.427438	-74.72940176	526.6951714	2129.650034	-154.4047096	473.3371688	2090.535223	-137.316947	395.0845708	2088.45031	-24.75841468	379.6548663	2057.263278	-149.3438724	368.8021935	2123.483668	-96.85682453	324.2167021	2059.752523	-158.2831336	285.2874799	2019.597227	-134.0955655	13.08269259	2029.161209	-48.0330811	25.75531681	1956.377804	-83.91925551	-6.762629227	2094.829662	-49.92190453	-1.552518541	2088.977093	-153.2800315	-20.35372069	2174.201835	-162.0397613	-47.0161221	2176.968514	-57.59368751	-34.52820758	2235.630493	-88.18151523	-36.51098765	2217.186992	167.6781368	633.6574083	2299.438873	97.4394069	631.8810392	2254.454174	153.3828701	539.4415012	2286.773543	138.945524	420.6748798	2287.491793	31.06670304	421.7761434	2256.574495	156.0706667	391.4732561	2285.45523	102.6419486	334.0538605	2229.893052	166.4841022	355.502979	2168.588366	133.6260322	58.7997075	2178.103305	45.5255286	79.5164317	2094.528125	81.19863714	52.48476266	2259.662758	55.77109965	35.29667211	2242.078528	150.766436	37.3958935	2299.926741	160.8566492	7.943167796	2316.224017	62.45973316	5.977955796	2363.372929	86.83216932	1.154365527
	108	1.125	2231.326867	-0.001000353	1242.799001	2168.297602	-161.6639114	1320.472049	2170.944473	164.9109026	1319.743275	2308.303243	-10.07056321	1524.128813	2203.778533	-126.4287728	882.785723	2209.288095	128.1563878	874.4268766	2015.009784	-6.022778891	899.4967114	2146.647707	-163.1570236	584.3406563	2197.791027	-74.72940176	525.3820679	2132.53391	-154.4047096	472.6118372	2092.713288	-137.316947	394.716037	2090.488976	-24.75841468	379.3058107	2059.318398	-149.3438724	368.6681733	2125.245621	-96.85682453	323.6503169	2061.261103	-158.2831336	285.1389591	2019.325469	-134.0955655	13.20275963	2028.97217	-48.0330811	25.8125297	1956.078012	-83.91925551	-6.576709724	2094.537176	-49.92190453	-1.564532259	2088.657736	-153.2800315	-20.35734848	2173.844274	-162.0397613	-47.14155817	2176.628802	-57.59368751	-34.65761159	2235.287887	-88.18151523	-36.72425159	2223.519937	167.6781368	633.6144387	2305.777839	97.4394069	632.1429996	2261.136134	153.3828701	539.537333	2293.895563	138.945524	420.8913396	2294.609725	31.06670304	421.9952582	2266.20798	156.0706667	391.3416001	2297.681693	102.6419486	335.301532	2241.197649	166.4841022	354.1899705	2193.511473	133.6260322	54.99584539	2202.070061	45.5255286	76.12561808	2119.783555	81.19863714	45.56733043	2285.493512	55.77109965	35.31609885	2267.836745	150.766436	36.67641797	2326.868653	160.8566492	9.674332041	2343.233979	62.45973316	8.393960812	2390.543639	86.83216932	5.550894952
	109	1.13333	2237.412543	-0.001000353	1242.237387	2174.420558	-161.6639114	1319.940672	2177.067079	164.9109026	1319.210628	2314.523911	-10.07056321	1523.530229	2209.664175	-126.4287728	882.176535	2215.16537	128.1563878	873.8121796	2020.912242	-6.022778891	899.0764064	2150.647837	-163.1570236	583.4862424	2201.275785	-74.72940176	524.0845151	2135.5616	-154.4047096	471.884568	2095.064144	-137.316947	394.3384938	2092.705718	-24.75841468	378.948222	2061.526236	-149.3438724	368.532716	2127.141947	-96.85682453	323.0620149	2062.893793	-158.2831336	284.9921059	2019.08686	-134.0955655	13.35108061	2028.820152	-48.0330811	25.89413385	1955.808525	-83.91925551	-6.354538063	2094.275391	-49.92190453	-1.559826918	2088.366442	-153.2800315	-20.34338587	2173.510809	-162.0397613	-47.26135415	2176.314941	-57.59368751	-34.78179627	2234.970707	-88.18151523	-36.94056206	2229.754829	167.6781368	633.4346965	2312.016564	97.4394069	632.1959629	2267.63701	153.3828701	539.4643798	2300.731946	138.945524	420.9115344	2301.442982	31.06670304	422.0174689	2275.580954	156.0706667	391.1523555	2309.56075	102.6419486	336.5954375	2252.279112	166.4841022	352.9059915	2218.194157	133.6260322	51.85896565	2225.786869	45.5255286	73.35472027	2144.902658	81.19863714	39.49364632	2310.888708	55.77109965	35.81820906	2293.1919	150.766436	36.47765199	2353.247624	160.8566492	11.83644999	2369.650838	62.45973316	11.20570726	2417.036006	86.83216932	10.23994381
	110	1.14167	2243.495006	-0.001000353	1241.64831	2180.534251	-161.6639114	1319.376901	2183.180478	164.9109026	1318.645793	2320.719403	-10.07056321	1522.910142	2215.57681	-126.4287728	881.5426986	2221.070635	128.1563878	873.1735005	2026.839838	-6.022778891	898.6088332	2154.758344	-163.1570236	582.6245735	2204.888861	-74.72940176	522.8024569	2138.741389	-154.4047096	471.1526693	2097.598271	-137.316947	393.9472199	2095.111505	-24.75841468	378.5771634	2063.895191	-149.3438724	368.392259	2129.179107	-96.85682453	322.4464601	2064.656301	-158.2831336	284.843923	2018.878716	-134.0955655	13.52804304	2028.7028	-48.0330811	26.00011314	1955.566534	-83.91925551	-6.09539628	2094.041435	-49.92190453	-1.538646073	2088.100216	-153.2800315	-20.31202283	2173.198199	-162.0397613	-47.37627106	2176.023773	-57.59368751	-34.90155048	2234.675743	-88.18151523	-37.1611124	2235.898096	167.6781368	633.1224165	2318.162146	97.4394069	632.0483586	2273.968313	153.3828701	539.2281214	2307.300504	138.945524	420.7417637	2308.009326	31.06670304	421.8491193	2284.687731	156.0706667	390.9060241	2321.07113	102.6419486	337.9217609	2263.117957	166.4841022	351.6567557	2242.517443	133.6260322	49.38748049	2249.142169	45.5255286	71.2010024	2169.744373	81.19863714	34.27491561	2335.752242	55.77109965	36.77790136	2318.043152	150.766436	36.77843881	2378.974122	160.8566492	14.38880508	2395.389446	62.45973316	14.36881693	2442.777737	86.83216932	15.16679219
